HIERARCHY
ROOT Hips
{
	OFFSET 0.000000 0.000000 0.000000
	CHANNELS 6 Xposition Yposition Zposition Xrotation Yrotation Zrotation
	JOINT LeftUpLeg_virtual
	{
		OFFSET 0.000000 0.000000 0.000000
		CHANNELS 3 Xrotation Yrotation Zrotation
		JOINT LeftUpLeg
		{
			OFFSET 11.394100 -6.187798 -0.413800
			CHANNELS 3 Xrotation Yrotation Zrotation
			JOINT LeftLeg
			{
				OFFSET 0.430247 -32.302673 3.732800
				CHANNELS 3 Xrotation Yrotation Zrotation
				JOINT LeftFoot
				{
					OFFSET -0.430247 -48.264931 -6.423300
					CHANNELS 3 Xrotation Yrotation Zrotation
					JOINT LeftToeBase
					{
						OFFSET 4.230900 -16.068199 23.438400
						CHANNELS 3 Xrotation Yrotation Zrotation
						JOINT LeftToe_End
						{
							OFFSET 4.510700 0.695400 19.974600
							CHANNELS 3 Xrotation Yrotation Zrotation
							End Site
							{
								OFFSET 0 0 0
							}
						}
					}
				}
			}
		}
	}
	JOINT RightUpLeg_virtual
	{
		OFFSET 0.000000 0.000000 0.000000
		CHANNELS 3 Xrotation Yrotation Zrotation
		JOINT RightUpLeg
		{
			OFFSET -11.333700 -6.187798 -0.413800
			CHANNELS 3 Xrotation Yrotation Zrotation
			JOINT RightLeg
			{
				OFFSET -0.430392 -32.302628 3.733000
				CHANNELS 3 Xrotation Yrotation Zrotation
				JOINT RightFoot
				{
					OFFSET 0.430392 -48.264973 -6.423500
					CHANNELS 3 Xrotation Yrotation Zrotation
					JOINT RightToeBase
					{
						OFFSET -4.230900 -16.068199 23.438400
						CHANNELS 3 Xrotation Yrotation Zrotation
						JOINT RightToe_End
						{
							OFFSET -4.510700 0.695400 19.974600
							CHANNELS 3 Xrotation Yrotation Zrotation
							End Site
							{
								OFFSET 0 0 0
							}
						}
					}
				}
			}
		}
	}
	JOINT Spine_virtual
	{
		OFFSET 0.000000 0.000000 0.000000
		CHANNELS 3 Xrotation Yrotation Zrotation
		JOINT Spine
		{
			OFFSET -0.002400 12.777504 0.315300
			CHANNELS 3 Xrotation Yrotation Zrotation
			JOINT Spine1
			{
				OFFSET -0.002067 5.816869 0.032633
				CHANNELS 3 Xrotation Yrotation Zrotation
				JOINT Spine1_split
				{
					OFFSET -0.002067 5.816869 0.032633
					CHANNELS 3 Xrotation Yrotation Zrotation
					JOINT Spine2
					{
						OFFSET -0.002067 5.816869 0.032633
						CHANNELS 3 Xrotation Yrotation Zrotation
						JOINT Neck_virtual
						{
							OFFSET 0.000000 0.000000 0.000000
							CHANNELS 3 Xrotation Yrotation Zrotation
							JOINT Neck
							{
								OFFSET -0.003700 21.199493 -0.826900
								CHANNELS 3 Xrotation Yrotation Zrotation
								JOINT Head
								{
									OFFSET 0.000000 20.442200 4.834800
									CHANNELS 3 Xrotation Yrotation Zrotation
									JOINT HeadTop_End
									{
										OFFSET 0.000000 34.668396 4.968400
										CHANNELS 3 Xrotation Yrotation Zrotation
										End Site
										{
											OFFSET 0 0 0
										}
									}
								}
							}
						}
						JOINT LeftShoulder_virtual
						{
							OFFSET 0.000000 0.000000 0.000000
							CHANNELS 3 Xrotation Yrotation Zrotation
							JOINT LeftShoulder
							{
								OFFSET 3.288150 8.794197 -1.372250
								CHANNELS 3 Xrotation Yrotation Zrotation
								JOINT LeftShoulder_split
								{
									OFFSET 3.288150 8.794197 -1.372250
									CHANNELS 3 Xrotation Yrotation Zrotation
									JOINT LeftArm
									{
										OFFSET 11.953299 -2.279007 -0.146200
										CHANNELS 3 Xrotation Yrotation Zrotation
										JOINT LeftForeArm
										{
											OFFSET 18.448900 0.000000 0.000000
											CHANNELS 3 Xrotation Yrotation Zrotation
											JOINT LeftHand
											{
												OFFSET 29.527798 0.000000 0.000000
												CHANNELS 3 Xrotation Yrotation Zrotation
												End Site
												{
													OFFSET 0 0 0
												}
											}
										}
									}
								}
							}
						}
						JOINT RightShoulder_virtual
						{
							OFFSET 0.000000 0.000000 0.000000
							CHANNELS 3 Xrotation Yrotation Zrotation
							JOINT RightShoulder
							{
								OFFSET -3.249400 8.794197 -1.372250
								CHANNELS 3 Xrotation Yrotation Zrotation
								JOINT RightShoulder_split
								{
									OFFSET -3.249400 8.794197 -1.372250
									CHANNELS 3 Xrotation Yrotation Zrotation
									JOINT RightArm
									{
										OFFSET -11.953299 -2.279007 -0.146200
										CHANNELS 3 Xrotation Yrotation Zrotation
										JOINT RightForeArm
										{
											OFFSET -18.448900 0.000000 0.000000
											CHANNELS 3 Xrotation Yrotation Zrotation
											JOINT RightHand
											{
												OFFSET -29.527802 0.000000 0.000000
												CHANNELS 3 Xrotation Yrotation Zrotation
												End Site
												{
													OFFSET 0 0 0
												}
											}
										}
									}
								}
							}
						}
					}
				}
			}
		}
	}
}
MOTION
Frames: 4
Frame Time: 0.03333333
-4.256559 90.175903 -2.884098 0.000000 0.000000 0.000000 -3.821493 -8.089942 5.938502 -68.887239 5.348009 8.408367 52.026480 3.127241 -4.967283 12.673572 -0.869104 2.069630 -2.791745 0.201609 1.584643 0.000000 0.000000 0.000000 -3.691062 -9.852912 5.527170 -26.121640 -7.617899 -7.059995 48.423084 7.881474 1.615768 -19.552760 1.412747 -8.074169 -5.933213 0.086647 -0.206021 0.000000 0.000000 0.000000 -3.130046 -7.682065 4.626735 13.224587 0.183043 -4.046088 2.690311 0.222478 -0.973474 0.646048 -0.702601 0.360200 0.000000 0.000000 0.000000 2.831278 0.202570 -0.815091 1.963407 -0.382890 0.652846 23.298624 5.555374 -0.468468 0.000000 0.000000 0.000000 2.814301 0.274227 -0.801467 1.523994 1.955031 -9.125972 0.898052 -2.599754 -0.800752 14.066943 -25.675823 -53.894690 0.551937 -33.027906 0.105560 0.000000 0.000000 0.000000 2.799217 -0.101702 -1.032372 -0.038346 5.887268 18.687999 0.237166 3.678349 -1.650075 14.223145 19.859830 48.205535 1.235039 40.638550 -0.418420 0.000000 0.000000 0.000000 
-4.346004 90.182083 -3.674026 0.000000 0.000000 0.000000 -2.824413 -8.086067 6.111323 -67.495267 4.981841 7.526470 44.847896 3.433892 -4.360766 12.700466 0.693858 2.210914 -0.142572 0.458559 0.310207 0.000000 0.000000 0.000000 -3.088181 -9.143818 5.752649 -26.673540 -7.274914 -6.482787 48.438035 7.117090 1.334373 -19.883304 0.828667 -9.061860 -5.442401 0.174801 0.089438 0.000000 0.000000 0.000000 -2.415541 -6.807745 4.955309 13.540704 0.182281 -4.233588 2.876498 0.254686 -1.034930 0.850006 -0.787804 0.681453 0.000000 0.000000 0.000000 2.943286 0.221957 -0.878704 2.241204 -0.477364 0.641660 23.119857 5.467614 -0.320774 0.000000 0.000000 0.000000 2.916114 0.322647 -0.885134 1.635610 1.893512 -9.217456 1.030622 -2.626827 -0.604749 14.853361 -26.737151 -54.065032 0.291662 -32.889342 -0.219513 0.000000 0.000000 0.000000 2.908622 -0.083460 -1.141827 -0.142643 6.607172 18.855649 0.353776 3.789631 -1.390964 14.082255 19.246783 47.767621 0.961671 42.450544 -0.266602 0.000000 0.000000 0.000000 
-4.487169 90.293167 -4.531696 0.000000 0.000000 0.000000 -1.816611 -7.683013 5.968317 -66.608585 4.675449 7.325571 39.767253 3.043766 -3.578808 12.602120 1.848308 1.911109 2.196312 0.748526 -1.288527 0.000000 0.000000 0.000000 -2.240555 -8.075355 5.697570 -27.192520 -7.212034 -5.817898 48.087752 6.352632 1.164197 -20.062076 0.420445 -9.980573 -4.944394 0.310316 0.378966 0.000000 0.000000 0.000000 -1.511877 -5.821118 5.044784 13.764061 0.104885 -4.222565 3.018668 0.225112 -1.053949 1.051090 -0.836604 0.832577 0.000000 0.000000 0.000000 3.022223 0.173125 -0.909226 2.445489 -0.545644 0.730107 22.708557 5.376332 -0.083115 0.000000 0.000000 0.000000 2.953564 0.300679 -0.944886 1.738832 1.725896 -9.210425 1.137584 -2.645339 -0.542375 15.322418 -27.561195 -54.204033 -0.024537 -32.795625 -0.628739 0.000000 0.000000 0.000000 2.963145 -0.124262 -1.202030 -0.257025 7.213761 19.102523 0.629876 3.770181 -1.291395 13.574233 18.667862 47.279372 0.711920 44.406874 -0.094795 0.000000 0.000000 0.000000 
-4.689695 90.652756 -5.358418 0.000000 0.000000 0.000000 -0.647168 -6.609430 5.687187 -65.804003 4.830022 7.412823 37.273613 2.185160 -2.837010 11.422633 2.327322 1.950073 2.910152 0.843071 -2.204085 0.000000 0.000000 0.000000 -1.221170 -6.941619 5.509041 -27.916185 -7.500553 -5.311309 47.116533 5.817469 1.093626 -19.336375 0.289298 -10.343543 -4.698423 0.417022 0.581043 0.000000 0.000000 0.000000 -0.248189 -4.718471 5.019901 13.810923 -0.107018 -4.042512 3.103748 0.115206 -1.036847 1.132207 -1.030611 0.718164 0.000000 0.000000 0.000000 3.091420 0.038101 -0.889965 2.511880 -0.565403 0.871314 22.138310 5.308610 0.164572 0.000000 0.000000 0.000000 2.943949 0.189517 -0.963084 1.827838 1.405360 -9.081424 1.341696 -2.673017 -0.485979 15.488979 -28.239115 -54.288666 -0.260953 -32.751652 -1.007618 0.000000 0.000000 0.000000 2.987301 -0.230093 -1.189622 -0.363927 7.658331 19.453688 0.941968 3.621009 -1.312352 12.912100 18.226978 46.643963 0.583124 45.886768 0.022501 0.000000 0.000000 0.000000 
